<?xml version="1.0" encoding="utf-8"?>
<!-- Generator: Adobe Illustrator 18.0.0, SVG Export Plug-In . SVG Version: 6.00 Build 0)  -->
<!DOCTYPE svg PUBLIC "-//W3C//DTD SVG 1.1//EN" "http://www.w3.org/Graphics/SVG/1.1/DTD/svg11.dtd">
<svg version="1.1" id="Layer_1" xmlns="http://www.w3.org/2000/svg" xmlns:xlink="http://www.w3.org/1999/xlink" x="0px" y="0px"
	 viewBox="0 0 100 100" enable-background="new 0 0 100 100" xml:space="preserve">
<g>
	<g>
		<defs>
			<rect id="SVGID_1_" x="7.5" y="7.5" width="85" height="85"/>
		</defs>
		<clipPath id="SVGID_2_">
			<use xlink:href="#SVGID_1_"  overflow="visible"/>
		</clipPath>
		<path clip-path="url(#SVGID_2_)" fill="#231F20" d="M50,11c-21.5,0-39,17.5-39,39c0,21.5,17.5,39,39,39c21.5,0,39-17.5,39-39
			S71.5,11,50,11 M50,91C27.4,91,9,72.6,9,50C9,27.4,27.4,9,50,9c22.6,0,41,18.4,41,41C91,72.6,72.6,91,50,91"/>
	</g>
	<g>
		<defs>
			<rect id="SVGID_3_" x="7.5" y="7.5" width="85" height="85"/>
		</defs>
		<clipPath id="SVGID_4_">
			<use xlink:href="#SVGID_3_"  overflow="visible"/>
		</clipPath>
		<path clip-path="url(#SVGID_4_)" fill="none" stroke="#231F20" stroke-width="3" stroke-miterlimit="10" d="M50,11
			c-21.5,0-39,17.5-39,39c0,21.5,17.5,39,39,39c21.5,0,39-17.5,39-39S71.5,11,50,11z M50,91C27.4,91,9,72.6,9,50C9,27.4,27.4,9,50,9
			c22.6,0,41,18.4,41,41C91,72.6,72.6,91,50,91z"/>
	</g>
	<g>
		<defs>
			<rect id="SVGID_5_" x="7.5" y="7.5" width="85" height="85"/>
		</defs>
		<clipPath id="SVGID_6_">
			<use xlink:href="#SVGID_5_"  overflow="visible"/>
		</clipPath>
		<path clip-path="url(#SVGID_6_)" fill="#231F20" d="M41.3,43.9H45v-3.6c0-1.6,0-4.1,1.2-5.6c1.2-1.6,2.9-2.7,5.8-2.7
			c4.7,0,6.7,0.7,6.7,0.7l-0.9,5.5c0,0-1.5-0.4-3-0.4c-1.4,0-2.7,0.5-2.7,2v4.2h5.9l-0.4,5.4H52V68h-7V49.3h-3.7L41.3,43.9
			L41.3,43.9z"/>
	</g>
</g>
</svg>
