<?xml version="1.0" encoding="utf-8"?>
<!-- Generator: Adobe Illustrator 18.0.0, SVG Export Plug-In . SVG Version: 6.00 Build 0)  -->
<!DOCTYPE svg PUBLIC "-//W3C//DTD SVG 1.1//EN" "http://www.w3.org/Graphics/SVG/1.1/DTD/svg11.dtd">
<svg version="1.1" id="Layer_1" xmlns="http://www.w3.org/2000/svg" xmlns:xlink="http://www.w3.org/1999/xlink" x="0px" y="0px"
	 viewBox="0 0 100 100" enable-background="new 0 0 100 100" xml:space="preserve">
<g>
	<g>
		<defs>
			<rect id="SVGID_1_" x="7.9" y="7.5" width="85" height="85"/>
		</defs>
		<clipPath id="SVGID_2_">
			<use xlink:href="#SVGID_1_"  overflow="visible"/>
		</clipPath>
		<path clip-path="url(#SVGID_2_)" fill="#231F20" d="M50.4,11c-21.5,0-39,17.5-39,39s17.5,39,39,39c21.5,0,39-17.5,39-39
			S71.9,11,50.4,11 M50.4,91c-22.6,0-41-18.4-41-41s18.4-41,41-41c22.6,0,41,18.4,41,41C91.4,72.6,73,91,50.4,91"/>
	</g>
	<g>
		<defs>
			<rect id="SVGID_3_" x="7.9" y="7.5" width="85" height="85"/>
		</defs>
		<clipPath id="SVGID_4_">
			<use xlink:href="#SVGID_3_"  overflow="visible"/>
		</clipPath>
		<path clip-path="url(#SVGID_4_)" fill="none" stroke="#231F20" stroke-width="3" stroke-miterlimit="10" d="M50.4,11
			c-21.5,0-39,17.5-39,39s17.5,39,39,39c21.5,0,39-17.5,39-39S71.9,11,50.4,11z M50.4,91c-22.6,0-41-18.4-41-41s18.4-41,41-41
			c22.6,0,41,18.4,41,41C91.4,72.6,73,91,50.4,91z"/>
	</g>
	<g>
		<defs>
			<rect id="SVGID_5_" x="7.9" y="7.5" width="85" height="85"/>
		</defs>
		<clipPath id="SVGID_6_">
			<use xlink:href="#SVGID_5_"  overflow="visible"/>
		</clipPath>
		<path clip-path="url(#SVGID_6_)" fill="#231F20" d="M64.9,61c0,1.9-1.5,3.4-3.4,3.4H39.4c-1.9,0-3.4-1.5-3.4-3.4V46.3h5.4
			c-0.5,1.1-0.7,2.4-0.7,3.7c0,5.4,4.4,9.8,9.8,9.8s9.8-4.4,9.8-9.8c0-1.3-0.3-2.6-0.7-3.7h5.4L64.9,61L64.9,61z M45.3,46.3
			c1.2-1.6,3-2.6,5.1-2.6s4,1,5.1,2.6c0.8,1,1.2,2.3,1.2,3.7c0,3.5-2.8,6.3-6.3,6.3s-6.3-2.8-6.3-6.3C44.1,48.6,44.5,47.3,45.3,46.3
			 M63.4,36.2l0.8,0V37v5.3l-6.1,0l0-6.1L63.4,36.2z M61.4,32H39.4c-3.8,0-7,3.1-7,7v7.3V61c0,3.8,3.1,7,7,7h22.1c3.8,0,7-3.1,7-7
			V46.3V39C68.4,35.1,65.3,32,61.4,32"/>
	</g>
</g>
</svg>
