<?xml version="1.0" encoding="utf-8"?>
<!-- Generator: Adobe Illustrator 18.0.0, SVG Export Plug-In . SVG Version: 6.00 Build 0)  -->
<!DOCTYPE svg PUBLIC "-//W3C//DTD SVG 1.1//EN" "http://www.w3.org/Graphics/SVG/1.1/DTD/svg11.dtd">
<svg version="1.1" id="Layer_1" xmlns="http://www.w3.org/2000/svg" xmlns:xlink="http://www.w3.org/1999/xlink" x="0px" y="0px"
	 viewBox="0 0 100 100" enable-background="new 0 0 100 100" xml:space="preserve">
<g>
	<g>
		<defs>
			<rect id="SVGID_1_" x="7.6" y="7.5" width="85" height="85"/>
		</defs>
		<clipPath id="SVGID_2_">
			<use xlink:href="#SVGID_1_"  overflow="visible"/>
		</clipPath>
		<path clip-path="url(#SVGID_2_)" fill="#231F20" d="M50.1,11c-21.5,0-39,17.5-39,39s17.5,39,39,39c21.5,0,39-17.5,39-39
			S71.6,11,50.1,11 M50.1,91c-22.6,0-41-18.4-41-41s18.4-41,41-41c22.6,0,41,18.4,41,41S72.7,91,50.1,91"/>
	</g>
	<g>
		<defs>
			<rect id="SVGID_3_" x="7.6" y="7.5" width="85" height="85"/>
		</defs>
		<clipPath id="SVGID_4_">
			<use xlink:href="#SVGID_3_"  overflow="visible"/>
		</clipPath>
		<path clip-path="url(#SVGID_4_)" fill="none" stroke="#231F20" stroke-width="3" stroke-miterlimit="10" d="M50.1,11
			c-21.5,0-39,17.5-39,39s17.5,39,39,39c21.5,0,39-17.5,39-39S71.6,11,50.1,11z M50.1,91c-22.6,0-41-18.4-41-41s18.4-41,41-41
			c22.6,0,41,18.4,41,41S72.7,91,50.1,91z"/>
	</g>
</g>
<rect x="34.2" y="40.4" fill="#231F20" width="6.8" height="22"/>
<g>
	<g>
		<defs>
			<rect id="SVGID_5_" x="7.6" y="7.5" width="85" height="85"/>
		</defs>
		<clipPath id="SVGID_6_">
			<use xlink:href="#SVGID_5_"  overflow="visible"/>
		</clipPath>
		<path clip-path="url(#SVGID_6_)" fill="#231F20" d="M37.6,37.4c-2.2,0-4-1.8-4-4c0-2.2,1.8-4,4-4c2.2,0,4,1.8,4,4
			C41.5,35.6,39.8,37.4,37.6,37.4"/>
	</g>
	<g>
		<defs>
			<rect id="SVGID_7_" x="7.6" y="7.5" width="85" height="85"/>
		</defs>
		<clipPath id="SVGID_8_">
			<use xlink:href="#SVGID_7_"  overflow="visible"/>
		</clipPath>
		<path clip-path="url(#SVGID_8_)" fill="#231F20" d="M66.6,62.4h-6.8V51.7c0-2.5,0-5.8-3.5-5.8c-3.6,0-4.1,2.8-4.1,5.6v10.9h-6.8
			v-22h6.5v3h0.1c0.9-1.7,3.1-3.5,6.5-3.5c6.9,0,8.2,4.5,8.2,10.5V62.4z"/>
	</g>
</g>
</svg>
