<?xml version="1.0" encoding="utf-8"?>
<!-- Generator: Adobe Illustrator 18.0.0, SVG Export Plug-In . SVG Version: 6.00 Build 0)  -->
<!DOCTYPE svg PUBLIC "-//W3C//DTD SVG 1.1//EN" "http://www.w3.org/Graphics/SVG/1.1/DTD/svg11.dtd">
<svg version="1.1" id="Layer_1" xmlns="http://www.w3.org/2000/svg" xmlns:xlink="http://www.w3.org/1999/xlink" x="0px" y="0px"
	 viewBox="0 0 100 100" enable-background="new 0 0 100 100" xml:space="preserve">
<g>
	<g>
		<defs>
			<rect id="SVGID_1_" x="7.6" y="7.5" width="85" height="85"/>
		</defs>
		<clipPath id="SVGID_2_">
			<use xlink:href="#SVGID_1_"  overflow="visible"/>
		</clipPath>
		<path clip-path="url(#SVGID_2_)" fill="#231F20" d="M50.1,11c-21.5,0-39,17.5-39,39c0,21.5,17.5,39,39,39c21.5,0,39-17.5,39-39
			C89.1,28.5,71.6,11,50.1,11 M50.1,91c-22.6,0-41-18.4-41-41c0-22.6,18.4-41,41-41c22.6,0,41,18.4,41,41C91.1,72.6,72.7,91,50.1,91
			"/>
	</g>
	<g>
		<defs>
			<rect id="SVGID_3_" x="7.6" y="7.5" width="85" height="85"/>
		</defs>
		<clipPath id="SVGID_4_">
			<use xlink:href="#SVGID_3_"  overflow="visible"/>
		</clipPath>
		<path clip-path="url(#SVGID_4_)" fill="none" stroke="#231F20" stroke-width="3" stroke-miterlimit="10" d="M50.1,11
			c-21.5,0-39,17.5-39,39c0,21.5,17.5,39,39,39c21.5,0,39-17.5,39-39C89.1,28.5,71.6,11,50.1,11z M50.1,91c-22.6,0-41-18.4-41-41
			c0-22.6,18.4-41,41-41c22.6,0,41,18.4,41,41C91.1,72.6,72.7,91,50.1,91z"/>
	</g>
	<g>
		<defs>
			<rect id="SVGID_5_" x="7.6" y="7.5" width="85" height="85"/>
		</defs>
		<clipPath id="SVGID_6_">
			<use xlink:href="#SVGID_5_"  overflow="visible"/>
		</clipPath>
		<path clip-path="url(#SVGID_6_)" fill="#231F20" d="M68.1,40.8c-1.3,0.6-2.8,1-4.2,1.2c1.5-0.9,2.7-2.4,3.2-4.1
			c-1.4,0.8-3,1.5-4.7,1.8c-1.3-1.4-3.3-2.3-5.4-2.3c-4.1,0-7.4,3.3-7.4,7.4c0,0.6,0.1,1.1,0.2,1.7c-6.1-0.3-11.6-3.2-15.2-7.7
			c-0.6,1.1-1,2.4-1,3.7c0,2.6,1.3,4.8,3.3,6.1c-1.2,0-2.3-0.4-3.3-0.9v0.1c0,3.6,2.5,6.6,5.9,7.2c-0.6,0.2-1.3,0.3-1.9,0.3
			c-0.5,0-0.9,0-1.4-0.1c0.9,2.9,3.7,5.1,6.9,5.1c-2.5,2-5.7,3.2-9.2,3.2c-0.6,0-1.2,0-1.8-0.1c3.3,2.1,7.2,3.3,11.3,3.3
			c13.6,0,21-11.3,21-21c0-0.3,0-0.6,0-1C65.9,43.6,67.1,42.3,68.1,40.8"/>
	</g>
</g>
</svg>
