<?xml version="1.0" encoding="utf-8"?>
<!-- Generator: Adobe Illustrator 18.0.0, SVG Export Plug-In . SVG Version: 6.00 Build 0)  -->
<!DOCTYPE svg PUBLIC "-//W3C//DTD SVG 1.1//EN" "http://www.w3.org/Graphics/SVG/1.1/DTD/svg11.dtd">
<svg viewBox="0,0,1000,453"  xmlns="http://www.w3.org/2000/svg">
		<path fill="#FFF" d="M517.9,382.6c0,6.4-2.3,9.3-6.4,9.3s-6.4-2.9-6.4-9.3V64.7c0-6.4,2.3-9.9,6.4-9.9s6.4,3.5,6.4,9.9V382.6z M575.3,70.5
		c0-40-18-65.5-59.7-65.5h-8.1c-41.8,0-60.3,24.4-60.3,65.5v307.4c0,41.2,20.9,64.4,60.3,64.4h8.1c37.7,0,59.7-22.6,59.7-64.4V70.5z
	 	M348,7.9v431.5H439v-52.8h-34.8L403.7,7.9L348,7.9L348,7.9z M248.8,7.9v431.5h91.1v-52.8h-34.8L304.5,7.9L248.8,7.9L248.8,7.9z
		 M144,7.9v431.5h95.7v-52.2h-40V238.7h33.6v-53.4h-33.6V59.5h38.9V7.9H144z M7,439.4h56.8V242.8h11.6v196.6h56.3V7.9H75.4v176.3
		H63.8V7.9H7V439.4z"/>
		<path fill="#FFF" d="M668.4,400.6c-4.9,0-7.1-1.8-7.1-4.9s2.2-4.9,7.1-4.9h242.1c4.9,0,7.5,1.8,7.5,4.9s-2.7,4.9-7.5,4.9H668.4z M906.1,444.3
			c30.5,0,49.9-13.7,49.9-45.5v-6.2c0-31.8-18.6-46-49.9-46H671.9c-31.4,0-49,15.9-49,46v6.2c0,28.7,17.2,45.5,49,45.5H906.1z
			 M953.8,271.1H625.1v69.4h40.2V314l288.5-0.4V271.1L953.8,271.1z M953.8,195.6H625.1v69.4h40.2v-26.5l288.5-0.4V195.6L953.8,195.6z
			 M953.8,115.7H625.1v72.9h39.8v-30.5h113.1v25.6h40.6v-25.6h95.9v29.6h39.3V115.7z M625.1,11.4v43.3h149.8v8.8H625.1v42.9h328.7
			V63.5H819.5v-8.8h134.3V11.4H625.1z"/>
</svg>
