<?xml version="1.0" encoding="utf-8"?>
<!-- Generator: Adobe Illustrator 16.0.0, SVG Export Plug-In . SVG Version: 6.00 Build 0)  -->
<!DOCTYPE svg PUBLIC "-//W3C//DTD SVG 1.1//EN" "http://www.w3.org/Graphics/SVG/1.1/DTD/svg11.dtd">
<svg version="1.1" id="Layer_1" xmlns="http://www.w3.org/2000/svg" xmlns:xlink="http://www.w3.org/1999/xlink" x="0px" y="0px"
	 width="1280px" height="800px" viewBox="0 0 1280 800" enable-background="new 0 0 1280 800" xml:space="preserve">
<path fill-rule="evenodd" clip-rule="evenodd" fill="#FFFFFF" d="M848.92,544.58c0,6.38-2.32,9.28-6.38,9.28s-6.38-2.9-6.38-9.28
	V226.74c0-6.38,2.32-9.86,6.38-9.86s6.38,3.48,6.38,9.86V544.58z M906.34,232.54c0-40.02-17.98-65.54-59.74-65.54h-8.119
	c-41.76,0-60.32,24.36-60.32,65.54v307.4c0,41.18,20.88,64.38,60.32,64.38h8.119c37.7,0,59.74-22.62,59.74-64.38V232.54z
	 M678.98,169.9v431.52h91.06v-52.78h-34.8l-0.58-378.74H678.98z M579.8,169.9v431.52h91.06v-52.78H636.06l-0.58-378.74H579.8z
	 M474.98,169.9v431.52h95.7v-52.2h-40.02V400.74h33.64v-53.36h-33.64V221.52h38.86V169.9H474.98z M338,601.42h56.84V404.8h11.6
	v196.62h56.26V169.9h-56.26v176.32h-11.6V169.9H338V601.42z"/>
</svg>
