<?xml version="1.0" encoding="utf-8"?>
<!-- Generator: Adobe Illustrator 18.0.0, SVG Export Plug-In . SVG Version: 6.00 Build 0)  -->
<!DOCTYPE svg PUBLIC "-//W3C//DTD SVG 1.1//EN" "http://www.w3.org/Graphics/SVG/1.1/DTD/svg11.dtd">
<svg version="1.1" id="Layer_1" xmlns="http://www.w3.org/2000/svg" xmlns:xlink="http://www.w3.org/1999/xlink" x="0px" y="0px"
	 viewBox="27.8 12.6 455 987.9" enable-background="new 27.8 12.6 455 987.9" xml:space="preserve">
<path fill="#FFF" d="M414.1,455.7c6.4,0,9.3,2.3,9.3,6.4s-2.9,6.4-9.3,6.4H96.2c-6.4,0-9.9-2.3-9.9-6.4s3.5-6.4,9.9-6.4H414.1z M102,398.3
	c-40,0-65.5,18-65.5,59.7v8.1c0,41.8,24.4,60.3,65.5,60.3h307.4c41.2,0,64.4-20.9,64.4-60.3v-8.1c0-37.7-22.6-59.7-64.4-59.7H102z
	 M39.4,625.7h431.5v-91.1h-52.8v34.8L39.4,570L39.4,625.7L39.4,625.7z M39.4,724.9h431.5v-91.1h-52.8v34.8l-378.7,0.6L39.4,724.9
	L39.4,724.9z M39.4,829.7h431.5V734h-52.2v40H270.2v-33.6h-53.4V774H91v-38.9H39.4V829.7z M470.9,966.7v-56.8H274.3v-11.6h196.6V842
	H39.4v56.3h176.3v11.6H39.4v56.8H470.9z"/>
<path fill="#FFF" d="M432.1,305.3c0,4.9-1.8,7.1-4.9,7.1s-4.9-2.2-4.9-7.1V63.2c0-4.9,1.8-7.5,4.9-7.5s4.9,2.7,4.9,7.5V305.3z M475.8,67.6
	c0-30.5-13.7-49.9-45.5-49.9h-6.2c-31.8,0-46,18.6-46,49.9v234.2c0,31.4,15.9,49,46,49h6.2c28.7,0,45.5-17.2,45.5-49V67.6z
	 M302.6,19.9v328.7H372v-40.2h-26.5L345,19.9L302.6,19.9L302.6,19.9z M227,19.9v328.7h69.4v-40.2h-26.5l-0.4-288.5L227,19.9
	L227,19.9z M147.2,19.9v328.7h72.9v-39.8h-30.5V195.7h25.6v-40.6h-25.6V59.2h29.6V19.9H147.2z M42.8,348.6h43.3V198.8H95v149.8h42.9
	V19.9H95v134.3h-8.8V19.9H42.8V348.6z"/>
</svg>
