<?xml version="1.0" encoding="utf-8"?>
<!-- Generator: Adobe Illustrator 18.0.0, SVG Export Plug-In . SVG Version: 6.00 Build 0)  -->
<!DOCTYPE svg PUBLIC "-//W3C//DTD SVG 1.1//EN" "http://www.w3.org/Graphics/SVG/1.1/DTD/svg11.dtd">
<svg version="1.1" id="Layer_1" xmlns="http://www.w3.org/2000/svg" xmlns:xlink="http://www.w3.org/1999/xlink" x="0px" y="0px"
	 viewBox="0 0 1280 800" enable-background="new 0 0 1280 800" xml:space="preserve">
<path fill="#FFFFFF" d="M514.9,379.6c0,6.4-2.3,9.3-6.4,9.3c-4.1,0-6.4-2.9-6.4-9.3V61.7c0-6.4,2.3-9.9,6.4-9.9
	c4.1,0,6.4,3.5,6.4,9.9V379.6z M572.4,67.5c0-40-18-65.5-59.7-65.5h-8.1c-41.8,0-60.3,24.4-60.3,65.5v307.4
	c0,41.2,20.9,64.4,60.3,64.4h8.1c37.7,0,59.7-22.6,59.7-64.4V67.5z M345,4.9v431.5h91.1v-52.8h-34.8L400.7,4.9L345,4.9L345,4.9z
	 M245.8,4.9v431.5h91.1v-52.8h-34.8L301.5,4.9L245.8,4.9L245.8,4.9z M141,4.9v431.5h95.7v-52.2h-40V235.7h33.6v-53.4h-33.6V56.5
	h38.9V4.9H141z M4,436.4h56.8V239.8h11.6v196.6h56.3V4.9H72.5v176.3H60.9V4.9H4V436.4z"/>
</svg>
