<?xml version="1.0" encoding="utf-8"?>
<!-- Generator: Adobe Illustrator 18.0.0, SVG Export Plug-In . SVG Version: 6.00 Build 0)  -->
<!DOCTYPE svg PUBLIC "-//W3C//DTD SVG 1.1//EN" "http://www.w3.org/Graphics/SVG/1.1/DTD/svg11.dtd">
<svg version="1.1" id="Layer_1" xmlns="http://www.w3.org/2000/svg" xmlns:xlink="http://www.w3.org/1999/xlink" x="0px" y="0px"
	 viewBox="0 0 1280 800" enable-background="new 0 0 1280 800" xml:space="preserve">
<path fill="#FFFFFF" d="M521.9,386.6c0,6.4-2.3,9.3-6.4,9.3s-6.4-2.9-6.4-9.3V68.7c0-6.4,2.3-9.9,6.4-9.9s6.4,3.5,6.4,9.9V386.6z
	 M579.3,74.5c0-40-18-65.5-59.7-65.5h-8.1c-41.8,0-60.3,24.4-60.3,65.5v307.4c0,41.2,20.9,64.4,60.3,64.4h8.1
	c37.7,0,59.7-22.6,59.7-64.4V74.5z M352,11.9v431.5H443v-52.8h-34.8l-0.6-378.7L352,11.9L352,11.9z M252.8,11.9v431.5h91.1v-52.8
	h-34.8l-0.6-378.7L252.8,11.9L252.8,11.9z M148,11.9v431.5h95.7v-52.2h-40V242.7h33.6v-53.4h-33.6V63.5h38.9V11.9H148z M11,443.4
	h56.8V246.8h11.6v196.6h56.3V11.9H79.4v176.3H67.8V11.9H11V443.4z"/>
</svg>
